<?xml version="1.0" encoding="utf-8"?>
<!-- Generator: Adobe Illustrator 27.2.0, SVG Export Plug-In . SVG Version: 6.00 Build 0)  -->
<svg version="1.1" id="Layer_1" xmlns="http://www.w3.org/2000/svg" xmlns:xlink="http://www.w3.org/1999/xlink" x="0px" y="0px"
	 viewBox="0 0 1660.54 429.2" style="enable-background:new 0 0 1660.54 429.2;" xml:space="preserve">
<style type="text/css">
	.st0{fill:#D92D27;}
	.st1{fill-rule:evenodd;clip-rule:evenodd;fill:#D92D27;}
</style>
<g>
	<g>
		<polygon class="st0" points="948.47,158.91 805.32,158.91 805.32,371.15 860.12,371.15 860.12,296.26 909.46,296.26 
			923.93,245.32 860.12,245.32 860.12,209.85 934,209.85 		"/>
		<path class="st0" d="M967.25,371.15l33.18-122.8l40.8,122.8h48.1l40.8-122.8c16.54,59.84,33.1,119.67,49.66,179.51h57.79
			c-25.46-89.65-50.92-179.3-76.39-268.96h-54.19l-41.71,130.98l-41.71-130.98h-54.19L909.1,371.15H967.25z"/>
		<path class="st0" d="M1575.9,374.79c54.19,0,84.64-28.5,84.64-71.25c0-32.14-17.35-50.63-57.24-60.03l-26.79-6.37
			c-24.05-5.76-28.92-10.01-28.92-16.98c0-8.79,8.22-15.46,26.19-15.46c14.31,0,30.14,4.25,48.4,18.8l35.01-37.6
			c-22.53-20.92-51.15-30.62-81.59-30.62c-51.45,0-82.81,27.89-82.81,67.61c0,30.62,18.88,49.72,56.93,58.82l26.79,6.37
			c23.44,5.46,29.23,11.22,29.23,19.41c0,10.01-8.53,17.28-27.4,17.28c-17.05,0-35.93-5.76-59.37-21.83l-31.66,42.75
			C1510.45,364.48,1542.42,374.79,1575.9,374.79"/>
		<path class="st0" d="M1240.38,371.15h54.19l41.71-130.98l41.71,130.98h54.19l60.28-212.24h-58.15l-33.18,122.79l-40.8-122.79
			h-48.1l-40.8,122.79c-16.55-59.84-33.1-119.67-49.65-179.51h-57.79C1189.45,191.85,1214.91,281.49,1240.38,371.15"/>
		<path class="st0" d="M692.78,374.79c41.41,0,78.54-20.01,97.72-57.91l-49.01-27.9c-8.83,21.53-27.71,33.05-49.02,33.05
			c-30.75,0-53.58-23.65-53.58-57c0-33.36,22.83-57,53.58-57c21.31,0,40.19,11.52,49.02,33.05l49.01-27.89
			c-19.18-37.9-56.32-57.91-97.72-57.91c-63.63,0-110.82,46.08-110.82,109.76C581.96,329.31,629.15,374.79,692.78,374.79"/>
	</g>
	<g>
		<path class="st0" d="M201.41,379.51c4.48-11.71,4.72-30.19,2.14-45.54c-2.1-12.48-0.37-26.09-2.5-38.42
			c-1.64-9.52-1.89-23.79-4.3-30.61h-11.43c-9.37-1.61-19.43-3.18-29.04-5.32c-11.69-2.6-22.71-6.03-30.97-11.4
			c-5.11-3.32-12.18-7.28-12.35-15.28c3.66-10.03,20.12-25.45,35.78-36.05c-39.79-44.76-45.11-50.83-45.11-50.83
			c-17.82,41.45-10.89,49.19-94.8,22.68c16.16,60.02,24.36,80.59,18.42,90.88c-3.56,6.17-12.2,8.64-27.26,13.71
			c51.83,43.88,152.63,80.42,112.5,155.88c0,0,26.92-4.11,83.51-12.83c3.25-10.49,8.49-28.76,7.55-34.37
			C201.99,381.4,201.78,381.4,201.41,379.51"/>
		<path class="st0" d="M183.02,171.43c1.76-3.34,6.7-6.46,11.18-9.78c0.95-1.79,4.35-2.96,8.05-5.35c1.3-0.84,2.68-1.76,4.08-2.73
			c1.07-0.75,2.17-1.5,3.25-2.27c0.09-0.07,0.18-0.12,0.26-0.18c1.32-0.93,2.59-1.84,3.85-2.73c0.63-0.45,1.25-0.89,1.84-1.33
			c0.27-0.18,0.53-0.37,0.78-0.55c0.91-0.64,1.79-1.27,2.59-1.81c0.6,0.49,1.2,0.94,1.79,1.43c-0.36,1.05-0.72,2.14-1.07,3.19
			c0.33-0.05,0.63-0.17,0.95-0.25c0.11,0.01,0.23-0.03,0.35-0.03c3.62-0.95,6.5-3.27,9.78-5.02c0.31-0.16,0.84-0.52,1.3-0.66
			c0.29-0.4,0.61-0.78,0.95-1.14c1.2-1.27,2.58-2.38,3.84-4c5.31-6.77,11.44-13.24,19.7-17.47c0.23-0.84,0.4-1.71,0.3-2.58
			c2.72-34.91-3.18-90.89-6.24-116.16c-5.76,11.49-18.74,37.19-39.56,77.58c-8.44,16.5-6.46,14.69-59.69-17.3
			c0,0,1.19,4.74,23.3,113.51c0.8-0.95,1.17-1.5,1.1-1.55C177.84,172.7,181.82,173.76,183.02,171.43"/>
		<path class="st0" d="M162.46,220.95L162.46,220.95l-0.2,0.04 M231.33,156.35c-1.54,1.29-3.11,2.55-4.74,3.72
			c-0.13,0.1-0.35,0.24-0.56,0.37c-2.6,1.82-5.31,3.51-7.43,5.88v0.38c3.17-0.39,4.48-0.96,5.72,1.77c1.02,1.96-2.84,4.97-6.46,6.84
			c-3.31,1.68-6.64,4.07-7.84,5.62c-1.19,0.81-2.43,1.58-3.69,2.29c-0.44,0.25-0.88,0.48-1.32,0.72c-0.19,0.1-0.38,0.19-0.57,0.29
			c-0.4,0.21-0.79,0.39-1.18,0.57c-0.26,0.13-0.51,0.23-0.77,0.34c-0.35,0.15-0.7,0.3-1.04,0.43c-0.57,0.21-1.13,0.4-1.67,0.55
			c-0.22,0.06-0.42,0.1-0.64,0.16c-0.39,0.08-0.77,0.17-1.14,0.23c-0.22,0.02-0.43,0.04-0.63,0.06c-0.38,0.03-0.75,0.04-1.11,0.03
			c-0.17-0.01-0.34,0-0.5-0.02c-0.51-0.06-1-0.14-1.46-0.31c-16.87,3.05,3.25,24.03,0,28.1c-0.1,0.12-0.23,0.23-0.35,0.36h0
			c-3.95,2.93-12.63,2.06-18.51,3.4c-4.26,1.35-8.82,1.77-13.17,2.86h0c-0.64,0.13-1.27,0.29-1.89,0.49
			c0.12,1.07,0.24,2.14,0.35,3.19c13.98-0.48,22.27-4.54,33.22-7.09c1.28,0.09,2.56,0.2,3.84,0.29c1.81,0.14,3.64,0.27,5.46,0.41
			c1.11-0.01,2.1-0.08,3.05-0.16c0.03,0,0.06,0,0.09,0c0.82-0.07,1.59-0.16,2.35-0.23c0.57-0.05,1.14-0.08,1.7-0.1
			c0.07,0,0.13-0.01,0.19-0.01c0.6-0.01,1.2,0.04,1.83,0.11l0.46,0.07c0.65,0.11,1.31,0.25,2.01,0.5c1.75,0.6,4.37,1.67,7.61,0.53
			c0.32-0.11,0.74-0.24,1.21-0.39c0.38-0.11,0.81-0.25,1.25-0.38c0.2-0.06,0.4-0.12,0.6-0.18c0.51-0.16,1.04-0.33,1.57-0.5
			c0.16-0.06,0.33-0.12,0.49-0.17c0.57-0.19,1.13-0.39,1.66-0.59c0.22-0.09,0.43-0.19,0.64-0.27c0.56-0.23,1.08-0.46,1.51-0.7
			c0.31-0.18,0.58-0.41,0.84-0.65c2.01-1.93,2.72-5.99,4.46-9.48c0.03-0.07,0.07-0.16,0.11-0.23c0.02-0.04,0.05-0.07,0.07-0.11
			c0.73-1.42,1.68-2.72,2.95-3.73c0.09-0.07,0.18-0.14,0.27-0.2c0.31-0.23,0.65-0.45,1-0.63c0.1-0.06,0.18-0.13,0.28-0.18
			c0.16-0.08,0.3-0.13,0.45-0.2c0.04-0.01,0.08-0.03,0.13-0.06c0.33-0.14,0.65-0.23,0.95-0.29c0.19-0.05,0.35-0.12,0.53-0.17
			c0.42-2.92,0.99-3.17,0.9-5.33c2.8-6.03,0.03-16.24-1.16-18.82c-0.9-2.71-3.65-0.26-5.05-4.28c-3.61-10.36-2.64-12.63,0-13.07
			c-0.79-0.16-1.53-0.59-2.24-1.13c-0.91-0.7-1.74-1.65-2.51-2.67c-0.28,0.24-0.57,0.48-0.86,0.73
			C232.17,155.66,231.76,156.02,231.33,156.35z"/>
		<path class="st0" d="M508.09,272.55c-14.4-4.84-22.9-7.33-26.74-12.94c-6.85-10.03,1.33-30.05,17.91-91.66
			c-83.84,26.51-76.98,18.78-94.79-22.67c0,0-6.52,7.39-58.98,66.4c-7.49,8.43-20.02,2.79-17.41-10.07
			C355.43,66.97,356.8,61.5,356.8,61.5c-53.24,31.99-51.26,33.81-59.7,17.3C275.53,36.97,262.37,10.84,256.94,0
			c2.29,18.59,4.18,37.23,5.5,55.91c1.46,20.7,1.85,41.24,0.86,61.95c0.03-0.01,0.07-0.02,0.1-0.03c0.22-0.07,0.43-0.14,0.65-0.2
			c0.34-0.03,0.68-0.05,1-0.13c1.03-0.25,2.2-0.54,3.31-0.83c0.04-0.01,0.07-0.02,0.1-0.03c3.22-0.61,6.69-0.91,10.48-0.85
			c2.37,0.35,4.78,0.71,7.13,1.07c6.06,0.92,9.17,6.68,9.51,12.11c0.32,5.05,0.82,10.2,0.01,15.22c-0.4,2.48-1.3,4.35-2.35,6.56
			c-0.21,0.44-0.38,0.89-0.54,1.35c-0.73,2.09-1.02,4.31-1.72,6.47c-0.26,0.8-0.52,1.56-0.83,2.26c2.33-1.05,3.82,3.91,1.2,9.02
			c-2.37,4.68-3.36,5.84-5.19,6.18c-0.57,0.1-1.23,0.12-2.05,0.14c-0.11,0.38-0.22,0.81-0.36,1.27c-0.93,3.2-2.37,7.93-2.87,11.21
			c-0.74,4.91,0.08,4.15,0.62,7.95c5.22,1.19,6.89,5.69,8.34,9.69c0.17,0.18,0.4,0.46,0.86,1.03c3.1,2.73,9.71,1.23,12.79,3.95
			c4.18,2.5,7.22,1.1,11.4,3.58c2.31,1.34,5.52,1.17,9.4,3.82c5.84,5.09,11.74,9.02,15.28,15.55c4.15,6.01,6.38,15.12,7.78,25.41
			c2.54,18.83,2.25,41.65,5.46,57.02c2.92,13.96,2.55,31.01,0.84,47.16c-1.23,11.68,7.78,21.97,4.94,29.23
			c-1.52,3.9-1.27,12.35,0.72,12.8c-0.84,0.84-1.67,1.67-2.5,2.49c0.11,4.52,2.67,7.06,2.14,10.32c-2.67,0.85-3.17,2.15-3.87,3.57
			c27.32,4.21,40.51,6.22,40.51,6.22C355.47,352.98,456.28,316.45,508.09,272.55"/>
		<path class="st1" d="M326.29,305.64L326.29,305.64c-0.01-0.15-0.51-0.9-0.47-0.93c-1.9,1.4,1.1,6.83,0.33,8.32
			C326.94,311.49,326.43,307.39,326.29,305.64 M225.12,314.06c-0.4,1.86,1.11,2.84,0.44,4.4c-0.15,0.35-0.9,2.89-1.16,3
			c-0.62,0.23,0.97-9.55,0.96-9.85C225.44,313.43,225.76,312.11,225.12,314.06z M290.32,269.56c-1.48-2.78-0.88-0.3-1.55-2.62
			c-0.26-0.89-1.47-1.59-1.36-2.43c0.11-0.86,0.36-0.68,0.49-1.78c0.27-2.42,1.83-3.68,2.34-5.37c0.44-1.44,4.62-3.55,6.15-3.65
			c2.12-0.18,9.68,0.77,10.12,3.47c0.39,2.38,1.84,2.85,2.04,5.57c0.13,1.52-1.26,3.67-1.26,4.38c0,0.08-0.38,2.55-0.53,1.96
			c0.27,1.03-0.57,2.02,2.06,3.18c2.3,1.03,1.46,1.56,3.94,2.53c2.36,0.91,4.51,1.08,6.95,1.87c3.1,1.01,6.04,3.97,7.88,6.54
			c3.38,4.72,4.68,8.47,7.24,13.66c1.37,2.74,2.05,2.75-0.92,4.43c-1.26,0.69-0.27,5.04-0.27,6.55c0.07,5.75-2.37,10.59-3.96,15.95
			c-0.68,2.34-1.36,5.71-2.69,7.76c-0.84,1.3,0.61,6.69,0.71,8.49c0.57,10.58,0.35,21.25,0.71,31.85c0.19,5.99,0.65,8.31,0.83,14.31
			c0.1,3.5-1.66,12.12-1.4,15.45c0.26,2.96-0.52,3.2,2.08,5.46c1.11,0.94,3.26,0.75,3.51,2.35c0.33,2.14,0.22,2.66-1.47,3.7
			c-1.18,1.14-5.87-0.39-8.47-2.79c-0.4-0.37-3.93-1.35-4.8-1.52c-1.5-1.92,0.3-6.46,0.28-6.61c-0.33-3.33-1.92-5.91-1.41-9.2
			c0.38-2.42-1.58-6.72-2.01-9.33c-0.49-3.06-0.35-6.49-1.8-9.29c-1.65-3.21-1.03-6.31-1.57-9.75c-0.89-5.5-1.37-12.7-4.11-17.66
			c0.65,1.16-0.75,5.38-1.01,6.91c-0.39,2.49-0.9,4.96-1.21,7.44c-0.75,5.9-0.25,11.95-1.2,17.79c-0.59,3.65-1.64,5.57-0.43,9.22
			c0.99,3.01,1.75,5.85,2.29,8.97c0.33,1.82,0.47,2.88-0.24,4.63c-0.48,1.23-2.29,2.27-2.29,3.56c0,1.24,0.82,2.56-1.15,3.69
			c-1.14,0.67-1.63,2.32-1.71,2.31c0.08,0.01-0.48,0.78-0.46,0.68c-1.1,0.47-3.42,0.52-3.42,0.5c0,0.17-3.58-0.2-3.95-0.3
			c-1.8-0.58-1.26-2.94-0.03-4.2c0.64-0.66,2.51-2.58,1.92-3.17c-0.74-0.75-2.12-3.19-1.15-4.2c2.47-2.64,0.8-5.51-0.11-8.4
			c-0.97-3.07-2.17-6.17-2.81-9.35c-0.78-3.77,0.32-7.22,0.07-10.96c-0.47-6.78-0.63-13.44-1.52-20.18c-0.3-2.34,0.35-6-1-7.96
			c-0.12-0.18-6.13-2.98-5.64-3.55c-0.9,1.02-0.17,8.25-0.05,9.81c0.21,3.28,0.48,6.59,0.8,9.86c0.13,1.29,0.96,2.98,0.83,4.25
			c-0.09,0.71-2.16,0.18-2.19,1.31c-0.02,1.8-1.48,7.74-0.64,8.87c1.37,1.89-0.51,6.49-0.9,8.57c-0.61,3.3-0.4,6.59-1.11,9.87
			c-0.34,1.59-0.95,3.34-1.65,4.8c-0.59,1.24-0.39,3.69-0.8,5.15c-0.2,0.71-1.13,0.45-0.29,1.95c0.6,1.07,0,1.16,0.89,1.99
			c0.25,0.24,2.96,4.33-0.07,4.9c-1.81,0.34-4.3,0.36-6.1-0.15c-0.81-0.22-0.84-2.38-1.23-2.1c-0.68,0.49,0.67,1.42-0.85,1.66
			c-1.68,0.25-3.62,0.4-5.31,0.29c-2.51-0.17-2.51-1.75-2.22-3.72c0.02-0.14,0.61-1.95,0.58-1.98c-0.03-0.72-0.56-2.34-0.19-2.68
			c-1.35,1.29-2.85-5.76-2.97-6.34c-0.71-3.32,0.15-7-0.66-10.17c-0.21-0.82,0.46-3.25,0.04-3.75c-0.93-1.16-0.49-3.31-0.42-4.66
			c0.09-1.96-0.49-3.69-0.4-5.94c0.07-2.13,1.02-4.73,0.53-6.87c-0.27-1.19-2.66-0.23-2.36-2.32c0.22-1.57,0.89-3.02,1.2-4.57
			c0.54-2.68,1.03-5.37,1.51-8.02c0.23-1.27,1.78-6.08,1.07-7.02c-0.47-0.64-2.86,0.64-2.96,1.48c-0.19,1.4-0.25,2.77-0.29,4.17
			c-0.08,2.76-0.27,5.51-0.44,8.27c-0.32,5.69-1.42,11.26-1.84,16.95c-0.38,5.49,0.59,11.24,0.43,16.77
			c-0.09,2.85-0.68,6.12-0.24,8.93c0.25,1.68,0.44,2.32-0.64,3.75c-0.72,0.96-3.81,0.52-3.97,0.85c-0.41,0.78,1.95,3.76,2.56,4.32
			c0.7,0.66,0.71,2.72,0.61,3.67c-0.2,1.83-8.97,2.34-8.18-1.99c0.02-0.17-1.5-1.03-1.54-1.07c-0.38-0.27-0.08-2.08-0.06-2.42
			c0.03-0.34,0.07-2.56,0.15-2.74c1.21-2.62-0.39-6.14-0.26-9.33c0.18-4.24-0.53-8.43-0.55-12.67c-0.01-3.39,0.26-7.77-0.76-10.94
			c-1.21-3.73-1.21-8.81-1.36-12.75c-0.05-1.1-1.36-10.68-1.07-10.82c-1.17,0.64-1.2,9.1-1.36,10.57c-0.33,3.23-0.27,6.65-0.92,9.82
			c-1.38,6.63-1.95,13.28-2.61,20.02c-0.33,3.11-0.52,6.2-1.08,9.28c-0.47,2.57-0.1,6.45-1.43,8.65c-0.58,0.97-1.18,0.8-0.96,1.96
			c0.1,0.44,0.42,1.23,0.28,1.69c-0.39,1.15-2.09,0.75-2.69,1.18c-0.63,0.42,0.11,1.53-0.5,2.05c-0.94,0.83-2.42,1.25-3.65,1.3
			c-0.98,0.04-3.54,0.42-4.3-0.55c-1.26-1.59,1.48-5.39,2.5-6.33c1.15-1.08,1.31-5.31,1.23-6.99c-0.37-6.81-0.96-13.6-0.7-20.46
			c0.1-2.69-0.85-6.87-1.43-9.54c-0.76-3.44-1.71-6.59-1.47-10.15c0.23-3.44,1.53-7.31,1.28-10.73c-0.16-2.26-2.02-3.81-1.84-6.37
			c0.08-0.98,0.45-4.86-0.41-5.63c-1.07-0.96,0.02-1.33,0-2.42c0-0.72-1.21-9.95-1.82-9.95c-3.54,0-1.05-5.02-1.23-6.81
			c-0.33-3.51,0.12-6.98,0.46-10.48c0.53-5.21,1.42-14.8,5.71-18.24c1.03-0.82,9.36-4.48,8.5-6.41c-0.28-0.68,2.94-2.08,2.94-2.08
			s-1.19,0.53-1.55-0.29c-0.1-0.22-0.49-0.35-0.35-0.48c-0.48-0.83-0.44-0.45-0.44-1.15c0-0.87-0.39,0.04,0.28-1.68
			c0.14-1.8,0.71-1.94,0.71-1.94l0.9-1.59c1.2-3.4,2.23-4.35,3.09-5.05c1.39-1.16,0.56-1.38,2.17-2.46
			c1.32-0.88,1.68-0.57,2.63-1.84c1.87-2.48,5.97-2.62,7.85-2.14c2.17,0.56,8.67,4.3,8.24,7.77c-0.32,2.57,0.01,3.53-1.24,5.5
			c-0.45,0.72-0.72,0.88-0.92,1.2c-0.16,0.27-0.5-0.13-0.5-0.13s-0.36,0.63-1.15,1.42c-0.35,0.92,0.02,2.49-0.2,3.72
			c-0.2,1.15-1.4,0.07-1.75,0.86c-0.23,0.52-0.9,1.2-1.05,1.73c-0.39,1.46-1.47,1.61-1.47,1.61s0.97,0.28,1.31,0.55
			c2.16,1.04,5.04,2.57,5.7,5.42c0.58,2.58,0.61,8.45,1.77,10.78c2.32,4.58-0.55,10.02,1.08,14.72c-0.1-0.26,3.92-1.7,4.31-1.84
			c0.99-0.37,0.78-1.39,1.46-1.71c2.12-0.98,0.11-4.9-0.35-6.32c0.24,0.76-1.35-0.39-1.36-0.4c-0.66-0.86-0.66-1.21-0.71-2.3
			c-0.04-1.16,0.5-1.67,0.5-3.09c0-1.48,0.4-5.45,1.5-5.76c1.34-0.39,2.3-2.43,4.27-2.59c1.28-0.1,3.74-0.05,4.61,0.94
			c0.45,0.5,1.32,0.63,1.85,1.1c0.77,0.68,0.84,1.8,1.5,2.53c0.19,0.22,0.06,0.54,0.17,0.63c0.5,0.37,0.06,4-0.32,4.98
			c-0.05,0.11,1.67,4.11-1.06,4.27c-1.39,0.07-1.36,2.5-1.5,3.83c-0.05,0.59,1.75,0.35,2.02,1.09c0.26,0.67,0.37,1.49,0.77,2.05
			c0.69,1,4.26,1.96,5.66,2.2c-0.7-0.12-0.15-6.56-0.85-6.64c-4.4-0.4-4.47-1.65-3.55-5.56c1.1-4.67,1.94-9.39,3.05-14.06
			c0.58-2.45,0.86-5.48,2.17-7.68c1.25-2.1,4.56-3.69,6.46-5.19c0.56-0.45,4.39-0.62,3.58-1.63c-0.36-0.44-0.59-1.38-0.75-1.86
			c-0.16-0.48-2.1,0.88-2.1-1.14c0-1.7,0.26-1.85,0.06-3.21L290.32,269.56z"/>
	</g>
</g>
</svg>
